<svg xmlns="http://www.w3.org/2000/svg" viewBox="0 0 606.91 484.1"><defs><style>.cls-1{fill:#3f3d56;}.cls-2,.cls-5{fill:#6c63ff;}.cls-3{opacity:0.1;}.cls-3,.cls-5{isolation:isolate;}.cls-4{fill:#f2f2f2;}.cls-5{opacity:0.3;}</style></defs><g id="Layer_2" data-name="Layer 2"><g id="b9bf6650-716f-405e-b16b-128ee0039b2f"><path class="cls-1" d="M582.44,350.57H559.9V328h22.54Zm-20.81-1.73h19.08V329.76H561.63Z"/><path class="cls-1" d="M45.19,330.1,29.81,313.61,46.3,298.23l15.38,16.49ZM32.26,313.7l13,13.95,13.95-13-13-13.95Z"/><path class="cls-1" d="M560.35,483.53q-37.05-5.8-71.24-9.87l8.78-17.56c-3.05-1-16.25,9.14-16.25,9.14l11.17-50.78c-15.23,2-22.34,53.83-22.34,53.83L453.2,451l8.5,19.54c-69.76-7.33-130-9.61-180.56-9.09l7.52-15c-3.05-1-16.25,9.15-16.25,9.15l11.17-50.79c-15.24,2-22.35,53.83-22.35,53.83L244,441.38l9,20.7a1012,1012,0,0,0-103.62,8.35c7.5-23.36,33.68-45.81,33.68-45.81-20.13,6.26-30.61,16.46-36,25.92a407.79,407.79,0,0,1,21.81-141.2s-40.63,91.41-34.54,152.35l.78,10.83C99.7,478,82,483.53,82,483.53Z"/><polygon class="cls-2" points="244.68 0 138.97 128.26 295.42 312.91 399.72 190.28 244.68 0"/><polygon class="cls-3" points="244.68 0 138.97 128.26 295.42 312.91 399.72 190.28 244.68 0"/><path class="cls-4" d="M143.19,129.67h0a53.21,53.21,0,0,1,8.62-11.5l97.1-98.44S282.73,14.09,289.78,31l-124,101.48Z"/><path class="cls-2" d="M138.26,127.56,282,347.44s14.1,9.87,28.19,4.23L457.51,252.3,301.06,15.5l-140.95,110Z"/><rect class="cls-1" x="183.49" y="82.02" width="111.09" height="2.28" transform="translate(-3.61 155.12) rotate(-35.7)"/><rect class="cls-1" x="249.17" y="121.73" width="2.28" height="214.62" transform="translate(-84.82 176.1) rotate(-33.48)"/><rect class="cls-1" x="312.05" y="287.81" width="118.97" height="2.28" transform="translate(-98.97 276.39) rotate(-36.34)"/><rect class="cls-1" x="359.82" y="34.32" width="2.28" height="214.66" transform="translate(-16.23 231.59) rotate(-34.84)"/><rect class="cls-1" x="131.72" y="69.33" width="151.39" height="1.41" transform="translate(7.25 158.69) rotate(-42.54)"/><rect class="cls-1" x="136.44" y="70.49" width="155.49" height="1.41" transform="translate(6.5 159.57) rotate(-41.44)"/><rect class="cls-1" x="140.47" y="71.53" width="157.53" height="1.41" transform="translate(4.58 157.12) rotate(-39.81)"/><path class="cls-5" d="M603.09,484.1A305.72,305.72,0,0,0,606.91,436c0-167.6-135.86-303.46-303.45-303.46S0,268.35,0,436A305.72,305.72,0,0,0,3.82,484.1Z"/></g></g></svg>