<svg xmlns="http://www.w3.org/2000/svg" viewBox="0 0 1392.95 868"><defs><style>.cls-1{fill:#390050;}.cls-2{fill:#ffb9b9;}.cls-3{fill:#ffb8b8;}.cls-4{fill:#2f2e41;}.cls-5{fill:#fff;}.cls-6{fill:#ccc;}.cls-7{opacity:0.1;isolation:isolate;}.cls-8{fill:#e6e6e6;}.cls-9{fill:#3f3d56;}.cls-10{fill:#f2f2f2;}.cls-11{fill:#6c63ff;}</style></defs><g id="Layer_2" data-name="Layer 2"><g id="Layer_2-2" data-name="Layer 2"><circle class="cls-1" cx="434" cy="434" r="434"/></g><g id="Layer_1-2" data-name="Layer 1"><path class="cls-2" d="M597.23,456.55a9.75,9.75,0,1,0-19.5-.14,9.59,9.59,0,0,0,.1,1.42l-28,36.69a13.58,13.58,0,0,0,1.84,14.91l2.2,2.57,10.08-2,11.43-10.08L574,488.47l14.12-22.19h0A9.74,9.74,0,0,0,597.23,456.55Z"/><polygon class="cls-3" points="403.51 635.9 398.93 618.92 462.26 593.2 469.01 618.27 403.51 635.9"/><path class="cls-4" d="M388.21,644.67l-14.75-54.76.7-.19a22.07,22.07,0,0,1,27,15.57h0l9,33.44Z"/><polygon class="cls-3" points="490.74 633.19 476.52 622.85 509.65 563.06 530.64 578.32 490.74 633.19"/><path class="cls-4" d="M484.34,649.62l-45.86-33.36.42-.58a22.07,22.07,0,0,1,30.83-4.87h0l28,20.37Z"/><path class="cls-5" d="M611.66,549.64l-35.8-34.77a18.08,18.08,0,0,0-23.67-1.33l-67.58,75.09,6.05,9.41,64.53-43.7,43.69,57.14,41.68-20.83Z"/><path class="cls-2" d="M596.2,557,570,555l-19-4.61a9.8,9.8,0,1,0-1.85,12.66h0l11.43,4.71,49.07,16.8,6.05-4.7Z"/><polygon class="cls-5" points="659.38 629.63 644.6 639.04 627.12 639.04 545.78 608.79 426.8 630.31 423.44 604.76 532.34 557.03 627.79 588.63 659.38 629.63"/><circle class="cls-2" cx="627.79" cy="440.07" r="26.22"/><path class="cls-6" d="M695.62,544.74a150.76,150.76,0,0,1-7.38,46.59l-2,6-9.41,43-10.08,2.69-7.4-9.41L644.6,622.91l-10.76-17.48-9.22-15.36-2.88-4.8-10.08-50.42-38.32-21.51-12.77-2,2.69-7.39,11.43-15.46,11.42-1.35,3.36-2.69,2.69,1.35L607,491.49l48-20.31,7,1.15,24.2,20.17A150.23,150.23,0,0,1,695.62,544.74Z"/><polygon class="cls-7" points="688.29 538.88 662.75 555.69 624.62 590.07 621.74 585.27 613.67 544.93 615.69 544.93 636.53 506.62 688.29 538.88"/><polygon class="cls-6" points="636.53 502.58 615.69 540.9 603.59 554.35 592.84 557.03 621.74 588.63 662.75 551.66 688.29 534.85 636.53 502.58"/><path class="cls-4" d="M607.4,420.57l-2.84,1.1a4,4,0,0,1-1.06-5.51h0l0-.07-5.25-.24a39.63,39.63,0,0,1,55.49-7.9,39.23,39.23,0,0,1,3.68,3.13c.24-.82,2.84.78,3.91,2.4.35-1.34,2.8,5.14,3.66,9.71.4-1.52,1.94.94.59,3.3.86-.13,1.24,2.06.58,3.28.93-.44.78,2.16-.24,3.91,1.34-.12-.11,27.33-20.11,25.33-1.39-6.4-1-6-2.64-14.23-.76-.81-1.6-1.55-2.43-2.28l-4.51-4c-5.25-4.63-10-10.34-17-12.08-4.8-1.19-7.84-1.45-5.22-6.87-2.36,1-4.57,2.46-7,3.37A23.47,23.47,0,0,0,607.4,420.57Z"/><circle class="cls-2" cx="640.9" cy="443.09" r="4.71"/><rect class="cls-8" x="420.72" y="332.65" width="21.61" height="21.61" transform="translate(60.15 751.21) rotate(-86.19)"/><path class="cls-6" d="M407.55,343.41l26.18,1.74L432,371.33l-26.18-1.74Zm25,2.8-23.91-1.59L407,368.53l23.91,1.59Z"/><rect class="cls-8" x="524.22" y="270.05" width="21.61" height="21.61" transform="translate(-47.06 118.66) rotate(-12.13)"/><path class="cls-6" d="M528.49,257.79,534,283.44,508.34,289l-5.51-25.65Zm4.15,24.77-5-23.42-23.42,5,5,23.43Z"/><rect class="cls-8" x="509.81" y="373.95" width="21.61" height="21.61" transform="translate(-122.38 459.85) rotate(-43.13)"/><path class="cls-6" d="M537,367.27l-19.15,17.94-17.94-19.15,19.15-17.94Zm-19.1,16.33,17.49-16.38L519,349.73l-17.49,16.38Z"/><path class="cls-9" d="M1336.74,212.94H697.36a17.59,17.59,0,0,0-17.6,17.59h0V586.79a17.59,17.59,0,0,0,17.6,17.59h639.38a17.59,17.59,0,0,0,17.6-17.59V230.53a17.59,17.59,0,0,0-17.6-17.59Z"/><rect class="cls-5" x="703.35" y="244.04" width="627.39" height="353.91"/><circle class="cls-5" cx="1016.51" cy="227.95" r="6.43"/><polygon class="cls-10" points="1151.32 597.95 703.36 597.95 703.36 244.04 1151.32 597.95"/><circle class="cls-11" cx="801.52" cy="511.16" r="60.31"/><path class="cls-9" d="M815,556.49a75,75,0,1,1,75-75,75,75,0,0,1-75,75Zm0-149.06a74,74,0,1,0,74,74,74,74,0,0,0-74-74Z"/><rect class="cls-9" x="1126.9" y="427.9" width="58.61" height="12.25"/><rect class="cls-9" x="1071.46" y="361.56" width="169.5" height="5.25"/><rect class="cls-9" x="1071.46" y="382.18" width="169.5" height="5.25"/><rect class="cls-9" x="1071.46" y="402.8" width="169.5" height="5.25"/><path class="cls-9" d="M1372,591.51h-61.23V587.1a.87.87,0,0,0-.88-.87h-21a.88.88,0,0,0-.88.87h0v4.41h-13.12V587.1a.87.87,0,0,0-.87-.87h-21a.87.87,0,0,0-.88.87h0v4.41H1239V587.1a.87.87,0,0,0-.87-.87h-21a.87.87,0,0,0-.87.87h0v4.41h-13.12V587.1a.87.87,0,0,0-.88-.87h-21a.87.87,0,0,0-.87.87h0v4.41h-13.12V587.1a.88.88,0,0,0-.88-.87h-21a.87.87,0,0,0-.88.87h0v4.41h-13.12V587.1a.87.87,0,0,0-.87-.87h-21a.87.87,0,0,0-.87.87h0v4.41h-13.12V587.1a.87.87,0,0,0-.88-.87H930.23a.87.87,0,0,0-.87.87h0v4.41H916.24V587.1a.88.88,0,0,0-.88-.87h-21a.87.87,0,0,0-.88.87h0v4.41H880.37V587.1a.87.87,0,0,0-.87-.87h-21a.87.87,0,0,0-.87.87h0v4.41H844.51V587.1a.87.87,0,0,0-.88-.87h-21a.87.87,0,0,0-.87.87h0v4.41H808.65V587.1a.88.88,0,0,0-.88-.87h-21a.88.88,0,0,0-.88.87h0v4.41H772.78V587.1a.87.87,0,0,0-.87-.87h-21a.87.87,0,0,0-.88.87v4.41H736.92V587.1a.87.87,0,0,0-.87-.87h-21a.87.87,0,0,0-.87.87h0v4.41H673.94a21,21,0,0,0-21,21V622a21,21,0,0,0,21,21h698a21,21,0,0,0,21-21v-9.49a21,21,0,0,0-21-21Z"/></g></g></svg>